<?xml version="1.0" encoding="utf-8"?>
<!-- Generator: Adobe Illustrator 16.0.0, SVG Export Plug-In . SVG Version: 6.00 Build 0)  -->
<!DOCTYPE svg PUBLIC "-//W3C//DTD SVG 1.1//EN" "http://www.w3.org/Graphics/SVG/1.1/DTD/svg11.dtd">
<svg version="1.1" id="レイヤー_1" xmlns="http://www.w3.org/2000/svg" xmlns:xlink="http://www.w3.org/1999/xlink" x="0px"
	 y="0px" width="24px" height="24px" viewBox="0 0 24 24" enable-background="new 0 0 24 24" xml:space="preserve">
<g transform="translate(0 -8)" display="none">
	<path display="inline" fill="#D00000" stroke="#4A0000" stroke-width="0.4" d="M19.747,25.88c-0.563-1.132-2.106-2.251-4.229-3.13
		l-0.455,0.828c1.964,0.813,3.32,1.807,3.773,2.713c0.451,0.906,0.292,1.666-0.012,2c-0.152,0.168-0.32,0.25-0.559,0.26
		c-0.24,0.009-0.568-0.074-0.959-0.346c-0.779-0.545-1.749-1.85-2.521-4.258l-0.959,0.297c0.806,2.51,1.809,3.967,2.845,4.689
		c0.519,0.362,1.058,0.541,1.579,0.521s1.006-0.256,1.33-0.613C20.228,28.127,20.311,27.011,19.747,25.88z"/>
	<path display="inline" fill="#D5D5D5" stroke="#717171" stroke-width="0.6" stroke-linejoin="round" d="M15.526,22.839
		l-1.917-1.345L10.357,9.36c-1.813,0.983-0.966,5.368-0.112,8.391l1.301,4.854l2.899,2.01L15.526,22.839z"/>
	<path display="inline" fill="#8CBE8C" stroke="#555753" stroke-width="1" stroke-linecap="round" stroke-linejoin="round" d="
		M8.027,9.502c-2.818,0.046-5.287,1.254-6.283,4.193c-0.988,2.917,1.17,8.184,5.932,5.842c1.03-0.507,1.921-0.86,2.705-1.1
		l1.008-8.475C10.261,9.66,9.121,9.484,8.027,9.502z"/>
	<path display="inline" fill="#8CBE8C" stroke="#555753" stroke-width="1" stroke-linecap="round" stroke-linejoin="round" d="
		M13.852,10.799l0.531,7.535c1.582,0.662,2.072,2.166,3.174,2.166c2.438,0,4.941-1.699,4.941-3.873c0-1.944,0.096-3.806-0.992-4.877
		C19.611,9.887,18.606,12.487,13.852,10.799z"/>
	<path display="inline" fill="#D00000" stroke="#4A0000" stroke-width="0.4" d="M12.471,25.063l-0.995,0.023
		c-0.085,2.518-0.682,4.084-1.311,4.76c-0.315,0.339-0.617,0.484-0.877,0.527c-0.26,0.044-0.498-0.008-0.72-0.153
		c-0.444-0.29-0.78-0.989-0.528-1.94c0.252-0.949,1.099-2.154,3.024-3.339l-0.527-0.741c-2.084,1.283-3.137,2.678-3.466,3.916
		s0.07,2.316,0.885,2.85c0.407,0.266,0.93,0.389,1.461,0.299c0.532-0.088,1.053-0.381,1.494-0.855
		C11.792,29.461,12.381,27.7,12.471,25.063z"/>
	<path display="inline" fill="#D5D5D5" stroke="#717171" stroke-width="0.6" stroke-linejoin="round" d="M10.316,24.699
		l6.201-15.596c0.049,5.735-2.446,11.044-4.399,16.508L10.316,24.699z"/>
</g>
<g>
	<path fill="none" stroke="#50717E" stroke-miterlimit="10" d="M3.887,4.702c0,0-2.414,2.202-1.917,5.752s3.266,6.107,7.173,5.113
		c3.906-0.993,3.428-2.911,2.494-3.977c-0.932-1.064-2.05-4.331,0-5.396c2.051-1.066,9.223-0.64,9.223-0.64"/>
	<polyline fill="none" stroke="#000000" stroke-width="0.5" stroke-miterlimit="10" points="2.254,21.746 8.574,15.783 
		18.48,19.512 	"/>
	<circle fill="#A6DBF4" stroke="#50717E" stroke-miterlimit="10" cx="3.887" cy="4.702" r="1.633"/>
	<circle fill="#A6DBF4" stroke="#50717E" stroke-miterlimit="10" cx="8.574" cy="15.783" r="1.633"/>
	<circle fill="#A6DBF4" stroke="#50717E" stroke-miterlimit="10" cx="15.604" cy="5.483" r="1.634"/>
	<circle fill="#A6DBF4" stroke="#50717E" stroke-miterlimit="10" cx="20.86" cy="5.554" r="1.634"/>
	<rect x="1.506" y="20.999" width="1.495" height="1.494"/>
	<rect x="17.732" y="18.765" width="1.494" height="1.494"/>
</g>
</svg>
