<?xml version="1.0" encoding="utf-8"?>
<!-- Generator: Adobe Illustrator 16.0.0, SVG Export Plug-In . SVG Version: 6.00 Build 0)  -->
<!DOCTYPE svg PUBLIC "-//W3C//DTD SVG 1.1//EN" "http://www.w3.org/Graphics/SVG/1.1/DTD/svg11.dtd">
<svg version="1.1" id="レイヤー_1" xmlns="http://www.w3.org/2000/svg" xmlns:xlink="http://www.w3.org/1999/xlink" x="0px"
	 y="0px" width="16px" height="16px" viewBox="0 0 16 16" enable-background="new 0 0 16 16" xml:space="preserve">
<g>
	<path d="M0,0l1.006,6.124l6.639,9.487l0.002-0.001c0,0-0.002,0.003-0.001,0.004c0.124,0.176,1.386-0.121,2.603-0.973
		s1.928-1.937,1.803-2.114L5.41,3.041L0,0z"/>
	<polygon fill="#FFFFFF" points="4.809,3.248 1.547,1.415 0.797,1.941 1.404,5.631 	"/>
	<polyline fill="none" stroke="#000000" stroke-miterlimit="10" points="1.594,6.035 1.854,5.16 2.765,5.213 3.031,4.336 
		3.944,4.389 4.207,3.512 5.121,3.564 	"/>
	<ellipse transform="matrix(0.8194 -0.5732 0.5732 0.8194 -0.6903 0.8961)" cx="1.077" cy="1.544" rx="0.554" ry="0.454"/>
	<path fill="#FFFFFF" d="M6.836,13.332l0.904,1.29c0.098,0.142,1.102-0.019,2.029-0.667c0.924-0.647,1.418-1.537,1.316-1.679
		l-0.902-1.29L6.836,13.332z"/>
</g>
</svg>
