<?xml version="1.0" encoding="utf-8"?>
<!-- Generator: Adobe Illustrator 16.0.0, SVG Export Plug-In . SVG Version: 6.00 Build 0)  -->
<!DOCTYPE svg PUBLIC "-//W3C//DTD SVG 1.1//EN" "http://www.w3.org/Graphics/SVG/1.1/DTD/svg11.dtd">
<svg version="1.1" id="レイヤー_1" xmlns="http://www.w3.org/2000/svg" xmlns:xlink="http://www.w3.org/1999/xlink" x="0px"
	 y="0px" width="24px" height="24px" viewBox="0 0 24 24" enable-background="new 0 0 24 24" xml:space="preserve">
<g>
	<path fill="#39A000" d="M2.486,21.732l4.746-3.139L16.16,3.663V3.662l0.002-0.001c0.145-0.244-0.479-1.353-1.646-2.05
		c-1.168-0.7-2.44-0.727-2.587-0.481L3.001,16.064L2.486,21.732z"/>
	<polygon fill="#FFFFFF" points="3.4,16.491 3.088,19.906 3.811,20.338 6.669,18.443 	"/>
	<g>
		<path d="M2.97,20.036c-0.106,0.178-0.019,0.427,0.197,0.558c0.219,0.131,0.479,0.09,0.587-0.087
			c0.104-0.178,0.015-0.426-0.203-0.557C3.334,19.82,3.073,19.859,2.97,20.036z"/>
		<polygon fill="#040000" points="3.519,20.43 3.147,20.207 3.147,20.207 2.936,20.081 2.839,21.146 3.73,20.555 		"/>
	</g>
	<polygon fill="#39A000" points="6.997,18.592 5.807,18.748 5.51,17.964 4.677,18.068 4.379,17.289 3.549,17.398 3.118,16.273 
		3.975,15.945 4.146,16.395 4.977,16.281 5.277,17.068 6.112,16.965 6.407,17.744 6.877,17.682 	"/>
	<path fill="#FFFFFF" d="M14.467,5.348l0.676-1.139c0.119-0.193-0.303-1.125-1.19-1.656c-0.892-0.529-1.911-0.459-2.025-0.263
		l-0.679,1.136L14.467,5.348z"/>
</g>
<g>
	<ellipse fill="#FFFFFF" cx="9.008" cy="14.992" rx="1.289" ry="1.32"/>
	<path fill="#040000" d="M3.206,15.492c-0.27,0-0.544-0.06-0.803-0.186c-0.441-0.214-0.773-0.587-0.934-1.052
		c-0.161-0.465-0.131-0.964,0.083-1.406l1.9-3.918c0.164-0.335,0.42-0.609,0.743-0.793l3.76-2.208l1.293-0.314l-0.59,0.987
		L8.278,6.877L4.697,9.002C4.542,9.09,4.425,9.215,4.35,9.368l-1.899,3.916c-0.098,0.202-0.111,0.431-0.038,0.644
		c0.073,0.212,0.225,0.382,0.426,0.479c0.416,0.203,0.921,0.03,1.124-0.388l1.839-3.614l0.892,0.453l-1.835,3.606
		C4.543,15.113,3.888,15.492,3.206,15.492z"/>
	<path fill="#040000" d="M15.257,18.896c-0.399,0-2.394-0.019-3.416-0.359l-3.774-1.719C7.607,16.661,7.202,16.3,6.97,15.82
		c-0.231-0.479-0.263-1.021-0.087-1.522c0.175-0.504,0.536-0.909,1.017-1.142c0.48-0.231,1.021-0.262,1.525-0.088l3.964,0.892
		l-0.221,0.976L9.15,14.027c-0.306-0.102-0.578-0.086-0.816,0.029c-0.24,0.115-0.419,0.317-0.507,0.568
		c-0.088,0.251-0.072,0.521,0.043,0.76c0.116,0.239,0.317,0.42,0.569,0.506l3.769,1.717c0.747,0.246,2.502,0.285,3.112,0.289h3.402
		V12.5h-1.94L13.01,8.932l0.494-0.827L17.18,11.5h2.543v7.396h-4.397C15.316,18.896,15.293,18.896,15.257,18.896z"/>
	<polygon fill="#040000" points="18.223,11.438 21.926,9.489 21.926,19.248 18.223,19.248 	"/>
</g>
</svg>
