<?xml version="1.0" encoding="utf-8"?>
<!-- Generator: Adobe Illustrator 16.0.0, SVG Export Plug-In . SVG Version: 6.00 Build 0)  -->
<!DOCTYPE svg PUBLIC "-//W3C//DTD SVG 1.1//EN" "http://www.w3.org/Graphics/SVG/1.1/DTD/svg11.dtd">
<svg version="1.1" id="レイヤー_1" xmlns="http://www.w3.org/2000/svg" xmlns:xlink="http://www.w3.org/1999/xlink" x="0px"
	 y="0px" width="24px" height="24px" viewBox="0 0 24 24" enable-background="new 0 0 24 24" xml:space="preserve">
<g transform="matrix(.89736973 0 0 1.0026331 4.4379101 26.874653)">
	<path fill="#0045CE" stroke="#0C0C93" stroke-width="0.4217" d="M14.012-13.982l-0.262,0.964c2.686,0.732,4.2,1.712,4.746,2.493
		c0.274,0.39,0.344,0.718,0.316,0.98c-0.028,0.262-0.152,0.477-0.373,0.655c-0.441,0.353-1.291,0.496-2.241,0.008
		c-0.949-0.489-2.002-1.615-2.723-3.775l-0.949,0.316c0.779,2.34,1.977,3.713,3.215,4.35c1.238,0.637,2.514,0.53,3.322-0.117
		c0.405-0.323,0.687-0.795,0.744-1.33c0.058-0.535-0.108-1.112-0.491-1.66C18.551-12.194,16.826-13.215,14.012-13.982z"/>
	<path fill="#0045CE" stroke="#0C0C93" stroke-width="0.4217" d="M16.99-20.781c-1.381,0.252-3.031,1.449-4.589,3.267l0.76,0.653
		c1.443-1.682,2.903-2.734,4.009-2.935c1.106-0.202,1.877,0.148,2.15,0.527c0.137,0.19,0.176,0.373,0.118,0.606
		c-0.06,0.232-0.244,0.528-0.649,0.834c-0.812,0.611-2.495,1.208-5.311,1.33l0.044,1c2.934-0.128,4.79-0.718,5.868-1.53
		c0.54-0.405,0.887-0.879,1.016-1.386c0.128-0.508,0.015-1.035-0.275-1.44C19.549-20.664,18.37-21.033,16.99-20.781z"/>
	<path fill="#D5D5D5" stroke="#717171" stroke-width="0.6325" stroke-linejoin="round" d="M12.499-17.5L10.5-16h-14
		c0.535,2,5.499,2.318,9,2.275h5.6L14.101-16L12.499-17.5z"/>
	<path fill="#D5D5D5" stroke="#717171" stroke-width="0.6325" stroke-linejoin="round" d="M13-11.999L-2-22
		c6.188,1.433,11.182,5.208,16.499,8.501L13-11.999z"/>
</g>
</svg>
